# xmcd
#
# Track frame offsets:
# 150
# 18216
# 58582
# 78020
# 93976
# 113655
# 136016
# 158626
# 180372
# 202532
# 220892
# 240273
# 259368
# 280749
# 297434
#
# Disc length: 4150 seconds
#
#
# Revision: 1
# Processed by: cddbd v1.5.2PL0 Copyright (c) Steve Scherf et al.
# Submitted via: FreeRIP 2.951 
#
DISCID=b710340f
DTITLE=Rigoberto Amaya - Para ti lo mejor
DYEAR=2002
DGENRE=Salsa
TTITLE0=Mas alla del Cielo
TTITLE1=Mosaico de Alabanza
TTITLE2=Perfecto Amor
TTITLE3=La Obra de El Espiritu Santo
TTITLE4=Me voy con Cristo
TTITLE5=Volver al Primer Amor
TTITLE6=Mosaico de Alabanza
TTITLE7=Llevame al trono
TTITLE8=Escondido en El
TTITLE9=Corazon Enamorado
TTITLE10=Volver al primer amor
TTITLE11=Yo he vencido al Mundo
TTITLE12=Cada Momento
TTITLE13=La zarza
TTITLE14=Que sepa el Mundo
EXTD=YEAR: 2002
EXTT0=
EXTT1=
EXTT2=
EXTT3=
EXTT4=
EXTT5=
EXTT6=
EXTT7=
EXTT8=
EXTT9=
EXTT10=
EXTT11=
EXTT12=
EXTT13=
EXTT14=
PLAYORDER=
